<svg id="svg" version="1.1" xmlns="http://www.w3.org/2000/svg" xmlns:xlink="http://www.w3.org/1999/xlink" width="400" height="320" viewBox="0, 0, 400,320"><g id="svgg"><path id="path0" d="M9.035 98.255 C 9.341 98.438,11.213 99.243,13.195 100.044 C 17.500 101.785,17.269 101.485,17.275 105.341 C 17.281 108.949,17.122 109.153,15.325 107.851 C 13.396 106.454,13.198 106.547,13.457 108.720 C 14.082 113.963,15.702 118.023,18.568 121.535 L 20.213 123.550 20.441 127.775 C 20.684 132.273,20.575 135.360,20.173 135.360 C 19.738 135.360,17.920 131.312,17.920 130.344 C 17.920 127.959,15.474 124.865,12.000 122.852 C 10.246 121.836,7.418 120.795,7.148 121.066 C 6.287 121.927,12.505 129.002,15.799 130.911 C 17.587 131.947,19.666 134.681,19.097 135.249 C 18.769 135.577,15.429 133.945,13.102 132.320 C 11.069 130.900,7.693 130.784,4.052 132.008 C -0.573 133.562,-0.575 133.575,3.689 135.079 C 7.768 136.517,11.410 136.579,13.430 135.244 C 15.090 134.146,16.330 134.352,18.627 136.107 L 20.000 137.156 19.976 139.538 C 19.931 143.916,19.199 146.714,18.704 144.400 C 18.014 141.176,16.835 139.410,14.638 138.313 C 13.266 137.628,10.880 137.333,10.880 137.848 C 10.880 138.906,16.914 144.960,17.968 144.960 C 18.866 144.960,19.483 148.587,18.997 151.012 C 18.700 152.499,17.709 151.489,15.033 146.969 C 13.208 143.888,9.147 141.235,4.879 140.336 C 3.691 140.086,2.468 139.785,2.160 139.667 C 0.945 139.200,1.688 140.480,4.176 143.139 C 8.061 147.292,11.740 149.440,14.966 149.440 C 17.015 149.440,18.951 153.098,18.813 156.710 C 18.721 159.120,18.205 160.122,17.767 158.742 C 17.653 158.383,16.947 157.331,16.199 156.405 C 15.450 155.478,14.509 154.033,14.107 153.192 C 12.643 150.135,10.284 148.800,6.342 148.800 C 4.033 148.800,4.032 148.981,6.335 151.319 C 8.592 153.612,10.945 154.880,12.942 154.880 C 14.408 154.880,17.213 157.481,16.867 158.519 C 16.685 159.065,14.087 159.386,12.756 159.028 C 10.513 158.424,7.558 160.497,4.868 164.562 C 3.818 166.148,3.971 166.223,6.712 165.464 C 9.461 164.702,11.511 163.565,12.534 162.233 C 14.435 159.761,14.542 159.678,16.079 159.474 L 17.598 159.273 18.205 160.677 C 18.833 162.130,19.418 174.868,18.871 175.206 C 18.521 175.422,16.162 171.537,15.736 170.043 C 15.286 168.468,14.335 167.186,13.172 166.591 C 12.081 166.033,9.711 165.635,9.517 165.977 C 8.896 167.078,12.723 171.520,14.292 171.520 C 15.239 171.520,16.635 172.592,16.224 173.003 C 16.114 173.113,15.379 173.040,14.591 172.841 C 10.055 171.699,6.370 173.080,3.866 176.862 C 2.450 178.998,2.521 179.129,4.934 178.838 C 9.631 178.273,12.750 177.032,15.097 174.796 C 17.281 172.716,17.280 172.712,17.280 184.463 L 17.280 194.865 16.560 195.325 C 16.164 195.577,14.184 196.458,12.160 197.282 C 10.136 198.106,8.341 198.913,8.171 199.075 C 7.596 199.624,46.124 199.240,49.280 198.665 C 75.225 193.944,81.278 159.988,58.323 147.936 C 55.490 146.449,55.490 146.554,58.320 145.205 C 70.929 139.191,76.047 123.317,69.490 110.560 C 66.671 105.076,60.160 100.458,52.960 98.835 C 49.375 98.027,7.731 97.477,9.035 98.255 M50.721 102.051 C 68.127 105.377,74.756 123.519,63.449 136.884 C 58.216 143.068,52.757 144.728,38.080 144.597 C 24.552 144.476,24.265 144.618,20.638 153.200 C 19.637 155.567,19.181 154.983,19.389 151.600 C 19.747 145.786,20.870 143.526,24.446 141.421 C 27.528 139.607,29.659 137.536,31.388 134.674 C 33.135 131.783,32.950 131.603,29.844 133.174 C 25.866 135.185,21.778 139.332,21.763 141.370 C 21.757 142.242,20.781 144.109,20.486 143.814 C 20.299 143.627,20.430 142.546,20.829 140.957 C 21.923 136.612,22.392 135.632,24.352 133.600 C 27.895 129.926,30.234 124.510,30.628 119.070 C 30.854 115.938,30.823 115.935,28.419 118.824 C 27.514 119.911,26.650 120.800,26.497 120.800 C 26.191 120.800,26.105 102.237,26.409 101.746 C 26.799 101.114,47.153 101.370,50.721 102.051 M16.726 109.841 C 19.585 112.709,20.931 115.495,20.947 118.582 C 20.968 122.323,20.102 122.488,19.229 118.909 C 19.018 118.045,18.626 117.037,18.357 116.669 C 17.792 115.895,17.847 116.230,18.702 118.796 C 19.039 119.806,19.207 120.740,19.075 120.871 C 18.446 121.501,15.298 115.479,14.604 112.320 C 13.446 107.046,13.674 106.779,16.726 109.841 M30.192 119.280 C 29.520 124.092,27.305 129.602,25.003 132.186 C 22.600 134.884,23.132 132.825,26.151 127.746 C 27.123 126.110,27.829 124.682,27.719 124.573 C 27.464 124.317,27.582 124.143,25.600 127.680 C 22.998 132.323,22.924 132.429,22.783 131.734 C 22.482 130.263,25.278 123.956,27.807 120.400 C 29.679 117.767,30.454 117.403,30.192 119.280 M289.615 125.638 C 288.128 125.887,286.832 126.206,286.735 126.345 C 286.639 126.485,285.588 126.858,284.400 127.175 C 283.212 127.492,282.240 127.850,282.240 127.971 C 282.240 128.092,281.738 128.373,281.123 128.595 C 280.509 128.817,279.818 129.188,279.588 129.418 C 279.357 129.648,278.708 130.075,278.144 130.367 C 277.581 130.658,277.120 131.037,277.120 131.208 C 277.120 131.380,276.955 131.520,276.753 131.520 C 275.524 131.520,267.520 139.804,267.520 141.075 C 267.520 141.276,267.398 141.440,267.249 141.440 C 267.099 141.440,266.703 142.051,266.369 142.797 C 266.034 143.544,265.516 144.400,265.218 144.700 C 264.920 144.999,264.580 145.756,264.462 146.382 C 264.345 147.008,264.128 147.520,263.981 147.520 C 263.833 147.520,263.457 148.348,263.145 149.360 C 262.833 150.372,262.478 151.273,262.356 151.362 C 262.059 151.579,261.120 156.589,261.120 157.955 C 261.120 158.552,260.976 159.040,260.800 159.040 C 260.602 159.040,260.480 160.693,260.480 163.360 C 260.480 166.027,260.602 167.680,260.800 167.680 C 260.976 167.680,261.120 168.181,261.120 168.794 C 261.120 170.074,262.081 175.121,262.370 175.360 C 262.476 175.448,262.760 176.096,263.001 176.800 C 263.600 178.552,264.926 181.355,265.384 181.841 C 265.592 182.060,266.046 182.780,266.394 183.440 C 266.741 184.100,267.140 184.640,267.281 184.640 C 267.421 184.640,267.674 185.004,267.843 185.448 C 268.012 185.893,268.369 186.340,268.635 186.442 C 268.902 186.545,269.120 186.797,269.120 187.002 C 269.120 187.208,270.092 188.270,271.280 189.363 C 272.468 190.457,273.743 191.641,274.114 191.995 C 274.484 192.350,274.916 192.640,275.074 192.640 C 275.231 192.641,275.771 192.994,276.274 193.427 C 276.777 193.859,277.677 194.374,278.274 194.571 C 278.871 194.768,279.360 195.034,279.360 195.162 C 279.360 195.289,280.116 195.662,281.040 195.990 C 281.964 196.319,282.797 196.701,282.891 196.840 C 282.985 196.980,284.209 197.342,285.611 197.646 C 287.013 197.949,288.232 198.300,288.320 198.425 C 289.183 199.654,309.382 199.646,312.160 198.415 C 312.512 198.259,313.916 197.883,315.280 197.578 C 316.644 197.274,317.760 196.928,317.760 196.811 C 317.760 196.693,318.552 196.347,319.520 196.042 C 320.488 195.737,321.280 195.367,321.280 195.219 C 321.280 195.072,321.748 194.863,322.320 194.755 C 322.892 194.647,323.828 194.273,324.400 193.924 L 325.440 193.289 325.440 180.340 C 325.440 164.600,325.721 162.956,328.560 162.095 C 328.956 161.975,329.280 161.743,329.280 161.578 C 329.280 161.414,330.144 161.280,331.200 161.280 L 333.120 161.280 333.120 160.000 L 333.120 158.720 319.040 158.720 L 304.960 158.720 304.960 160.000 L 304.960 161.280 307.040 161.280 C 308.213 161.280,309.120 161.419,309.120 161.600 C 309.120 161.776,309.402 161.920,309.747 161.920 C 310.512 161.920,312.621 162.936,312.632 163.311 C 312.636 163.459,312.964 164.035,313.360 164.591 C 314.074 165.591,314.081 165.712,314.177 178.444 L 314.273 191.287 313.217 191.926 C 312.635 192.277,311.584 192.761,310.880 193.000 C 310.176 193.240,309.528 193.532,309.439 193.649 C 309.222 193.936,304.585 194.880,303.392 194.880 C 302.867 194.880,302.349 195.024,302.240 195.200 C 302.131 195.376,301.187 195.520,300.141 195.520 C 299.087 195.520,298.240 195.377,298.240 195.200 C 298.240 195.024,297.793 194.880,297.246 194.880 C 295.951 194.880,291.840 193.886,291.840 193.573 C 291.840 193.440,291.437 193.242,290.945 193.134 C 290.452 193.026,289.221 192.439,288.209 191.829 C 287.196 191.219,286.308 190.720,286.235 190.720 C 286.161 190.720,285.614 190.232,285.018 189.637 C 284.422 189.041,283.625 188.388,283.247 188.185 C 282.869 187.983,282.560 187.639,282.560 187.420 C 282.560 187.201,282.164 186.637,281.680 186.166 C 280.309 184.832,279.865 184.236,279.222 182.869 C 278.894 182.171,278.535 181.528,278.424 181.440 C 278.313 181.352,277.942 180.632,277.600 179.840 C 277.258 179.048,276.880 178.328,276.761 178.240 C 276.641 178.152,276.296 177.216,275.993 176.160 C 275.690 175.104,275.317 174.083,275.164 173.890 C 275.011 173.698,274.651 172.042,274.365 170.210 C 274.079 168.379,273.717 166.630,273.562 166.324 C 273.163 165.538,273.198 156.160,273.600 156.160 C 273.776 156.160,273.920 155.672,273.920 155.075 C 273.920 153.691,274.861 148.696,275.162 148.482 C 275.288 148.393,275.659 147.420,275.986 146.320 C 276.313 145.220,276.674 144.320,276.786 144.320 C 276.899 144.320,277.179 143.802,277.408 143.168 C 277.796 142.094,279.198 139.816,280.314 138.443 C 281.301 137.230,284.789 133.760,285.031 133.751 C 285.168 133.746,285.846 133.314,286.537 132.791 C 287.228 132.268,287.974 131.840,288.194 131.840 C 288.414 131.840,288.803 131.631,289.059 131.376 C 289.314 131.120,290.800 130.652,292.361 130.336 C 293.923 130.019,295.248 129.652,295.307 129.520 C 295.472 129.148,303.040 129.226,303.040 129.600 C 303.040 129.776,303.406 129.920,303.854 129.920 C 305.118 129.920,308.911 130.948,309.383 131.418 C 309.615 131.650,309.991 131.840,310.217 131.840 C 310.443 131.840,311.288 132.344,312.095 132.960 C 312.902 133.576,313.635 134.080,313.726 134.080 C 313.927 134.080,317.120 137.254,317.120 137.454 C 317.120 137.534,317.607 138.283,318.201 139.119 C 318.796 139.956,319.382 140.964,319.503 141.360 C 319.624 141.756,319.842 142.080,319.987 142.080 C 320.132 142.080,320.510 142.944,320.826 144.000 C 321.142 145.056,321.506 145.920,321.635 145.920 C 321.764 145.920,321.964 146.352,322.080 146.880 C 322.275 147.770,322.394 147.840,323.705 147.840 L 325.120 147.840 325.120 146.240 C 325.120 145.360,325.002 144.640,324.857 144.640 C 324.712 144.640,324.328 140.248,324.003 134.880 L 323.411 125.120 322.060 125.120 C 320.666 125.120,320.320 125.446,320.320 126.757 C 320.320 127.539,319.485 128.844,318.821 129.098 C 318.324 129.289,314.547 128.389,314.240 128.007 C 314.008 127.718,310.753 126.720,310.043 126.720 C 309.711 126.720,309.440 126.591,309.440 126.433 C 309.440 125.259,295.272 124.691,289.615 125.638 M74.560 127.776 L 74.560 128.871 77.478 129.038 C 79.082 129.129,80.486 129.346,80.598 129.519 C 80.709 129.692,81.099 129.927,81.464 130.041 C 83.519 130.681,84.460 132.920,84.472 137.200 C 84.477 138.742,84.613 139.840,84.800 139.840 C 85.010 139.840,85.120 147.520,85.120 162.240 C 85.120 176.960,85.010 184.640,84.800 184.640 C 84.611 184.640,84.480 185.797,84.480 187.472 C 84.480 192.145,82.702 194.880,79.665 194.880 C 79.321 194.880,79.040 195.024,79.040 195.200 C 79.040 195.383,78.080 195.520,76.800 195.520 L 74.560 195.520 74.560 196.640 L 74.560 197.760 90.240 197.760 L 105.920 197.760 105.920 196.640 L 105.920 195.520 103.680 195.520 C 102.448 195.520,101.440 195.392,101.440 195.236 C 101.440 195.080,100.815 194.859,100.051 194.744 C 98.439 194.503,96.818 193.048,96.458 191.520 C 96.334 190.992,96.084 190.373,95.903 190.143 C 95.697 189.883,95.518 185.128,95.423 177.423 L 95.273 165.120 98.960 165.120 L 102.647 165.120 103.179 166.240 C 103.471 166.856,103.851 167.360,104.023 167.360 C 104.195 167.360,104.461 167.684,104.614 168.080 C 104.886 168.786,106.390 170.866,107.353 171.867 C 107.621 172.146,107.840 172.506,107.841 172.667 C 107.841 172.828,108.274 173.464,108.802 174.080 C 109.331 174.696,109.844 175.452,109.943 175.760 C 110.042 176.068,110.254 176.320,110.413 176.320 C 110.573 176.320,110.931 176.760,111.209 177.297 C 111.487 177.834,111.994 178.590,112.337 178.977 C 113.641 180.448,113.920 180.806,113.920 181.007 C 113.920 181.121,114.399 181.805,114.984 182.527 C 115.568 183.249,116.140 184.092,116.253 184.400 C 116.367 184.708,116.608 184.960,116.790 184.960 C 116.971 184.960,117.120 185.113,117.120 185.299 C 117.120 185.620,118.783 188.035,119.775 189.156 C 120.026 189.439,120.499 190.123,120.825 190.676 C 121.151 191.228,121.521 191.680,121.647 191.680 C 121.774 191.680,121.958 191.932,122.057 192.240 C 122.156 192.548,122.670 193.304,123.200 193.920 C 123.730 194.536,124.244 195.292,124.343 195.600 C 124.442 195.908,124.661 196.160,124.829 196.160 C 124.998 196.160,125.273 196.520,125.440 196.960 L 125.744 197.760 135.832 197.760 L 145.920 197.760 145.920 196.640 C 145.920 195.858,145.775 195.520,145.440 195.520 C 145.176 195.520,144.960 195.376,144.960 195.200 C 144.960 195.024,144.592 194.880,144.143 194.880 C 142.840 194.880,138.880 193.898,138.880 193.574 C 138.880 193.412,138.722 193.280,138.528 193.280 C 137.080 193.280,132.468 189.266,129.920 185.788 C 129.304 184.947,128.556 183.993,128.257 183.667 C 127.958 183.341,127.487 182.634,127.209 182.097 C 126.931 181.560,126.573 181.120,126.413 181.120 C 126.254 181.120,126.042 180.868,125.943 180.560 C 125.844 180.252,125.331 179.496,124.802 178.880 C 124.274 178.264,123.841 177.585,123.841 177.371 C 123.840 177.157,123.552 176.828,123.200 176.640 C 122.848 176.452,122.559 176.123,122.557 175.909 C 122.554 175.538,120.881 173.207,119.848 172.133 C 119.580 171.854,119.360 171.494,119.359 171.333 C 119.359 171.172,118.926 170.536,118.398 169.920 C 117.869 169.304,117.356 168.548,117.257 168.240 C 117.158 167.932,116.965 167.680,116.829 167.680 C 116.692 167.680,116.309 167.176,115.978 166.560 C 115.646 165.944,115.267 165.440,115.135 165.440 C 115.004 165.440,114.693 165.044,114.443 164.560 C 113.954 163.610,114.330 162.880,115.310 162.880 C 115.920 162.880,119.158 161.846,119.360 161.586 C 119.448 161.474,120.195 161.126,121.019 160.815 C 121.844 160.504,122.596 160.049,122.689 159.804 C 122.783 159.560,123.044 159.357,123.270 159.353 C 123.785 159.345,127.360 155.747,127.360 155.237 C 127.360 155.030,127.566 154.781,127.817 154.685 C 128.068 154.588,128.529 153.801,128.840 152.935 C 129.152 152.069,129.509 151.360,129.634 151.360 C 130.126 151.360,130.638 146.608,130.480 143.510 C 130.309 140.154,129.201 136.919,127.655 135.259 C 127.317 134.896,127.040 134.509,127.040 134.398 C 127.040 134.025,124.966 131.934,124.400 131.736 C 124.092 131.628,123.840 131.398,123.840 131.225 C 123.840 131.052,123.300 130.657,122.640 130.347 C 121.980 130.038,121.279 129.628,121.082 129.437 C 120.886 129.247,120.094 128.887,119.322 128.639 C 118.551 128.390,117.848 128.093,117.760 127.978 C 117.116 127.137,112.703 126.918,94.000 126.801 L 74.560 126.680 74.560 127.776 M146.560 127.795 L 146.560 128.870 149.321 129.042 C 150.839 129.137,152.173 129.362,152.284 129.542 C 152.395 129.722,152.864 129.964,153.325 130.080 C 155.523 130.632,156.305 132.165,156.433 136.176 C 156.497 138.191,156.678 139.840,156.835 139.840 C 156.999 139.840,157.120 149.327,157.120 162.240 C 157.120 176.960,157.010 184.640,156.800 184.640 C 156.611 184.640,156.480 185.797,156.480 187.472 C 156.480 192.276,154.779 194.880,151.641 194.880 C 151.310 194.880,151.040 195.024,151.040 195.200 C 151.040 195.383,150.080 195.520,148.800 195.520 L 146.560 195.520 146.560 196.640 L 146.560 197.760 162.240 197.760 L 177.920 197.760 177.920 196.640 L 177.920 195.520 175.840 195.520 C 174.696 195.520,173.760 195.392,173.760 195.236 C 173.760 195.080,173.101 194.854,172.295 194.733 C 170.666 194.489,168.320 192.681,168.320 191.669 C 168.320 191.353,168.140 191.033,167.920 190.960 C 167.604 190.855,167.520 184.889,167.520 162.560 C 167.520 140.231,167.604 134.265,167.920 134.160 C 168.140 134.087,168.320 133.737,168.320 133.383 C 168.320 132.328,169.318 130.958,170.538 130.339 C 171.166 130.021,171.771 129.635,171.882 129.482 C 171.994 129.329,173.398 129.129,175.002 129.038 L 177.920 128.871 177.920 127.796 L 177.920 126.720 162.240 126.720 L 146.560 126.720 146.560 127.795 M181.440 127.775 L 181.440 128.871 184.302 129.034 C 186.352 129.151,187.311 129.345,187.684 129.719 C 187.971 130.005,188.393 130.240,188.622 130.240 C 189.546 130.240,190.995 132.498,191.261 134.349 C 191.700 137.414,191.584 188.689,191.134 190.591 C 190.580 192.932,188.496 194.880,186.545 194.880 C 186.201 194.880,185.920 195.024,185.920 195.200 C 185.920 195.383,184.960 195.520,183.680 195.520 L 181.440 195.520 181.440 196.640 L 181.440 197.760 200.880 197.759 C 218.968 197.758,225.752 197.510,226.240 196.831 C 226.328 196.708,227.543 196.364,228.940 196.067 C 230.336 195.769,231.560 195.415,231.660 195.281 C 231.759 195.147,232.668 194.762,233.680 194.427 C 234.692 194.091,235.520 193.710,235.520 193.579 C 235.520 193.449,235.987 193.180,236.558 192.981 C 237.512 192.648,239.473 191.460,240.640 190.509 C 241.977 189.418,245.440 185.939,245.440 185.686 C 245.440 185.526,245.780 185.100,246.195 184.739 C 246.610 184.378,247.149 183.632,247.393 183.081 C 247.637 182.531,247.931 182.080,248.047 182.080 C 248.340 182.080,250.399 177.971,250.691 176.803 C 250.823 176.277,251.059 175.767,251.216 175.670 C 251.530 175.476,252.480 171.279,252.480 170.086 C 252.480 169.672,252.660 169.273,252.880 169.200 C 253.401 169.026,253.463 154.661,252.944 154.308 C 252.759 154.183,252.348 152.676,252.030 150.960 C 251.712 149.244,251.342 147.840,251.208 147.840 C 251.073 147.840,250.778 147.180,250.553 146.374 C 250.327 145.568,249.982 144.740,249.785 144.534 C 249.589 144.328,249.157 143.548,248.826 142.800 C 248.494 142.052,248.101 141.440,247.951 141.440 C 247.802 141.440,247.680 141.281,247.680 141.086 C 247.680 140.729,245.845 138.263,244.252 136.480 C 243.047 135.131,238.976 131.840,238.512 131.840 C 238.299 131.840,237.935 131.652,237.703 131.423 C 237.470 131.194,236.632 130.749,235.841 130.434 C 235.049 130.119,234.329 129.760,234.241 129.636 C 234.015 129.318,230.256 128.320,229.285 128.320 C 228.842 128.320,228.480 128.198,228.480 128.050 C 228.480 127.191,222.743 126.917,202.320 126.799 L 181.440 126.678 181.440 127.775 M336.320 127.795 L 336.320 128.870 338.982 129.036 C 340.446 129.127,341.922 129.363,342.262 129.561 C 342.602 129.758,343.278 130.061,343.764 130.233 C 344.250 130.406,344.823 130.946,345.037 131.434 C 345.252 131.921,345.574 132.423,345.753 132.548 C 345.971 132.701,346.080 142.488,346.080 161.988 L 346.080 191.200 345.120 192.542 C 344.064 194.017,343.337 194.454,341.430 194.759 C 340.731 194.870,340.160 195.087,340.160 195.241 C 340.160 195.394,339.296 195.520,338.240 195.520 L 336.320 195.520 336.320 196.642 L 336.320 197.764 363.920 197.682 L 391.520 197.600 391.622 196.880 C 391.678 196.484,391.831 196.160,391.961 196.160 C 392.090 196.160,392.458 195.152,392.778 193.920 C 393.097 192.688,393.461 191.680,393.586 191.680 C 393.711 191.680,394.082 190.600,394.411 189.280 C 394.739 187.960,395.108 186.880,395.230 186.880 C 395.351 186.880,395.705 185.836,396.014 184.560 C 396.324 183.284,396.705 182.156,396.860 182.054 C 397.016 181.952,397.228 181.340,397.333 180.694 L 397.524 179.520 396.014 179.520 C 394.631 179.520,394.474 179.600,394.142 180.480 C 393.943 181.008,393.689 181.440,393.578 181.440 C 393.468 181.440,393.103 182.051,392.769 182.797 C 392.434 183.544,391.944 184.399,391.680 184.697 C 391.416 184.995,390.912 185.635,390.560 186.119 C 389.510 187.562,386.106 191.035,385.740 191.038 C 385.554 191.039,385.107 191.313,384.749 191.647 C 383.219 193.072,361.364 193.966,358.995 192.701 C 357.266 191.777,357.288 191.966,357.179 176.880 L 357.078 162.880 366.360 162.880 C 372.203 162.880,375.716 162.999,375.840 163.200 C 375.949 163.376,376.382 163.520,376.804 163.520 C 378.777 163.520,381.184 165.558,381.772 167.726 C 381.980 168.493,382.269 169.408,382.413 169.760 C 382.558 170.112,382.767 171.084,382.878 171.920 L 383.079 173.440 384.500 173.440 L 385.920 173.440 385.920 160.640 L 385.920 147.840 384.512 147.840 L 383.105 147.840 382.880 150.080 C 382.756 151.312,382.548 152.320,382.418 152.320 C 382.288 152.320,382.016 152.873,381.813 153.548 C 380.647 157.440,378.459 158.067,366.000 158.074 L 357.120 158.080 357.120 144.480 L 357.120 130.880 367.981 130.880 C 374.877 130.880,378.914 130.997,379.040 131.200 C 379.149 131.376,379.769 131.521,380.419 131.522 C 381.888 131.524,384.004 132.090,384.640 132.652 C 386.998 134.732,387.431 135.367,388.060 137.659 C 388.365 138.770,388.729 139.728,388.867 139.787 C 389.006 139.845,389.122 140.205,389.124 140.587 C 389.136 142.356,389.442 142.720,390.917 142.720 L 392.320 142.720 392.320 140.179 C 392.320 138.781,392.176 137.549,392.000 137.440 C 391.816 137.326,391.680 135.638,391.680 133.466 C 391.680 131.389,391.588 129.021,391.477 128.205 L 391.273 126.720 363.797 126.720 L 336.320 126.720 336.320 127.795 M11.808 132.173 C 13.688 133.026,13.337 133.224,10.088 133.146 C 8.587 133.110,7.360 133.197,7.360 133.340 C 7.360 133.483,8.260 133.602,9.360 133.604 C 11.568 133.609,13.760 133.978,13.760 134.346 C 13.760 135.896,8.621 136.175,4.610 134.842 C 1.321 133.749,1.266 133.401,4.240 132.487 C 5.516 132.095,6.704 131.728,6.880 131.672 C 7.918 131.342,10.571 131.612,11.808 132.173 M108.000 131.960 C 109.584 132.388,111.862 133.535,112.480 134.216 C 112.656 134.410,113.196 134.822,113.680 135.132 C 114.164 135.441,114.560 135.902,114.560 136.156 C 114.560 136.410,114.822 136.758,115.142 136.929 C 115.463 137.101,115.918 137.826,116.154 138.540 C 116.389 139.255,116.684 139.840,116.807 139.840 C 117.185 139.840,117.760 143.340,117.760 145.638 C 117.760 147.920,117.227 151.040,116.838 151.040 C 116.712 151.040,116.439 151.508,116.232 152.081 C 115.747 153.421,112.754 157.120,112.154 157.120 C 112.075 157.120,111.323 157.541,110.485 158.057 C 109.646 158.572,108.240 159.168,107.360 159.383 C 106.480 159.597,105.599 159.898,105.402 160.050 C 105.003 160.361,99.637 160.939,97.040 160.952 L 95.360 160.960 95.360 146.580 L 95.360 132.199 96.880 131.994 C 97.716 131.882,98.544 131.740,98.720 131.680 C 99.629 131.369,106.589 131.579,108.000 131.960 M219.299 131.988 C 220.674 132.233,221.970 132.563,222.179 132.722 C 222.389 132.880,223.280 133.276,224.160 133.602 C 225.040 133.927,225.950 134.384,226.183 134.617 C 226.415 134.850,226.775 135.040,226.983 135.040 C 227.190 135.041,227.778 135.401,228.290 135.840 C 228.801 136.280,229.320 136.640,229.443 136.640 C 229.735 136.640,234.560 141.465,234.560 141.757 C 234.560 141.880,234.920 142.399,235.360 142.910 C 235.799 143.422,236.159 144.010,236.160 144.217 C 236.160 144.425,236.348 144.785,236.577 145.017 C 236.806 145.250,237.251 146.088,237.566 146.879 C 237.881 147.671,238.253 148.391,238.394 148.479 C 238.535 148.568,238.914 149.936,239.236 151.520 C 239.558 153.104,239.970 154.503,240.151 154.628 C 240.618 154.952,240.599 169.865,240.131 170.172 C 239.940 170.297,239.602 171.336,239.381 172.480 C 239.160 173.624,238.728 175.136,238.420 175.840 C 238.113 176.544,237.664 177.624,237.422 178.240 C 237.181 178.856,236.726 179.639,236.412 179.980 C 236.097 180.322,235.840 180.733,235.840 180.894 C 235.840 181.056,235.408 181.733,234.880 182.400 C 234.352 183.067,233.920 183.684,233.920 183.771 C 233.920 183.979,230.379 187.520,230.171 187.520 C 230.084 187.520,229.467 187.952,228.800 188.480 C 228.133 189.008,227.456 189.440,227.294 189.440 C 227.133 189.440,226.705 189.716,226.343 190.053 C 225.981 190.390,225.054 190.883,224.282 191.149 C 223.511 191.415,222.448 191.850,221.920 192.117 C 219.505 193.333,210.744 193.583,204.720 192.607 L 202.240 192.205 202.240 162.343 C 202.240 134.125,202.271 132.479,202.800 132.455 C 203.108 132.441,204.368 132.239,205.600 132.005 C 208.585 131.440,216.173 131.431,219.299 131.988 M22.080 133.721 C 22.080 135.034,21.929 135.727,21.581 136.016 C 21.105 136.411,20.893 132.889,21.344 132.080 C 21.754 131.345,22.080 132.072,22.080 133.721 M5.087 140.820 C 7.111 141.286,9.697 142.535,11.691 144.008 C 14.383 145.997,14.884 147.527,12.254 145.730 C 10.725 144.684,7.978 143.275,7.806 143.447 C 7.735 143.519,8.721 144.195,9.998 144.950 C 14.760 147.766,16.134 149.442,13.128 148.766 C 10.897 148.265,8.433 146.673,5.538 143.861 C 2.138 140.559,2.074 140.125,5.087 140.820 M33.469 145.304 C 33.867 145.634,31.939 147.389,27.769 150.492 C 26.475 151.455,22.805 153.279,22.160 153.280 C 20.950 153.281,22.801 151.121,26.457 148.266 C 27.922 147.123,29.120 146.046,29.120 145.875 C 29.120 145.545,25.951 147.885,23.912 149.722 C 21.924 151.511,22.021 150.378,24.081 147.750 C 26.007 145.293,31.676 143.816,33.469 145.304 M50.400 148.763 C 73.513 153.536,75.552 185.387,53.297 194.011 L 50.720 195.010 38.480 195.126 L 26.240 195.241 26.240 188.039 L 26.240 180.836 27.531 179.778 C 30.328 177.484,34.055 170.381,32.080 171.106 C 27.212 172.892,22.822 177.002,22.229 180.330 C 21.994 181.644,20.940 183.680,20.494 183.680 C 19.515 183.680,19.632 178.172,20.647 176.439 C 21.521 174.948,26.658 171.005,28.144 170.684 C 31.929 169.867,34.382 167.293,35.221 163.255 C 35.704 160.933,35.676 160.937,32.388 163.658 C 29.268 166.240,28.140 167.525,27.368 169.371 C 26.873 170.557,25.447 171.793,25.041 171.388 C 24.921 171.268,25.000 170.924,25.216 170.625 C 26.653 168.634,26.878 168.076,26.879 166.492 C 26.880 164.879,25.801 161.280,25.316 161.280 C 24.215 161.280,23.200 167.668,23.995 169.589 C 24.573 170.983,24.237 171.763,22.097 174.000 C 19.524 176.689,19.629 176.866,19.363 169.409 L 19.127 162.818 20.510 161.409 L 21.893 160.000 24.713 160.000 C 29.136 160.000,33.249 158.283,36.566 155.052 C 38.273 153.390,37.929 153.152,34.180 153.397 C 28.641 153.760,26.225 154.895,22.127 159.059 C 19.315 161.916,19.098 161.909,19.249 158.960 C 19.419 155.655,20.228 154.198,22.162 153.711 C 24.190 153.201,27.659 151.324,29.758 149.602 L 31.515 148.160 39.518 148.164 C 46.059 148.168,48.046 148.277,50.400 148.763 M10.400 150.201 C 12.085 150.995,13.708 152.478,13.319 152.867 C 13.193 152.994,12.844 152.929,12.545 152.722 C 10.986 151.649,9.210 150.683,9.065 150.829 C 8.974 150.920,9.525 151.382,10.290 151.856 C 13.962 154.135,14.040 155.505,10.400 153.808 C 8.815 153.069,5.760 150.411,5.760 149.772 C 5.760 149.147,8.751 149.423,10.400 150.201 M36.480 154.400 C 36.480 154.947,35.664 155.051,35.350 154.544 C 35.220 154.333,35.005 154.320,34.772 154.508 C 34.567 154.672,33.896 154.912,33.280 155.042 C 32.664 155.172,30.720 155.774,28.960 156.379 C 24.544 157.899,24.640 157.874,24.640 157.499 C 24.640 156.766,27.624 155.097,30.154 154.416 C 32.540 153.774,36.480 153.764,36.480 154.400 M35.200 155.337 C 35.200 156.500,29.260 159.229,26.001 159.563 C 21.695 160.005,23.757 158.460,30.088 156.503 C 31.932 155.934,33.800 155.347,34.240 155.199 C 34.680 155.051,35.076 154.919,35.120 154.905 C 35.164 154.891,35.200 155.086,35.200 155.337 M12.160 159.650 C 12.160 159.809,11.512 160.319,10.720 160.783 C 9.928 161.247,9.280 161.764,9.280 161.931 C 9.280 162.097,9.980 161.803,10.835 161.277 C 13.453 159.666,14.089 160.401,11.784 162.374 C 8.519 165.168,4.271 166.123,6.133 163.643 C 8.463 160.539,12.160 158.090,12.160 159.650 M34.700 163.600 C 33.894 166.204,31.485 169.213,29.771 169.756 C 28.670 170.106,28.708 169.793,29.918 168.547 C 31.377 167.045,31.383 166.262,29.925 167.675 C 28.653 168.908,28.039 168.747,29.010 167.435 C 30.853 164.942,35.190 162.019,34.700 163.600 M12.410 173.171 C 12.341 173.376,11.573 173.749,10.703 174.001 C 9.221 174.429,7.827 175.294,8.130 175.597 C 8.204 175.671,8.643 175.483,9.105 175.181 C 10.575 174.217,14.720 173.422,14.720 174.103 C 14.720 175.660,5.214 179.422,4.099 178.307 C 3.395 177.603,7.025 173.844,9.029 173.202 C 10.513 172.726,12.564 172.708,12.410 173.171 M31.920 194.479 C 34.604 194.533,38.996 194.533,41.680 194.479 C 44.364 194.426,42.168 194.382,36.800 194.382 C 31.432 194.382,29.236 194.426,31.920 194.479 " stroke="none" fill="#fbfbfb" fill-rule="evenodd"></path><path id="path1" d="M6.560 97.600 C 6.250 98.101,6.643 98.492,7.684 98.721 C 8.210 98.836,8.640 99.035,8.640 99.162 C 8.640 99.289,9.583 99.663,10.736 99.992 C 11.888 100.322,12.898 100.700,12.979 100.831 C 13.061 100.963,13.846 101.310,14.724 101.601 L 16.320 102.131 16.320 104.826 C 16.320 107.564,16.136 108.004,15.452 106.909 C 14.909 106.039,13.118 105.692,12.629 106.362 C 12.199 106.949,12.371 110.814,12.834 110.987 C 12.991 111.045,13.120 111.396,13.120 111.766 C 13.120 112.563,14.110 116.250,14.386 116.480 C 14.491 116.568,14.848 117.252,15.177 118.000 C 15.507 118.748,15.882 119.360,16.010 119.360 C 16.138 119.360,16.414 119.775,16.624 120.282 C 16.835 120.790,17.428 121.609,17.943 122.102 C 18.458 122.596,18.880 123.249,18.880 123.553 C 18.880 123.858,19.025 124.155,19.203 124.214 C 19.382 124.274,19.618 126.163,19.735 128.481 C 19.929 132.336,19.905 132.608,19.412 132.201 C 19.119 131.959,18.880 131.451,18.880 131.071 C 18.880 129.961,18.080 127.192,17.580 126.568 C 17.096 125.966,14.901 123.749,14.076 123.030 C 11.796 121.042,6.080 119.550,6.080 120.942 C 6.080 122.460,9.989 127.708,12.503 129.566 C 13.458 130.272,14.398 130.985,14.590 131.151 C 14.783 131.316,15.390 131.685,15.941 131.969 C 17.641 132.849,17.885 133.764,16.312 133.365 C 15.601 133.184,15.040 132.848,15.040 132.601 C 15.040 132.358,14.851 132.160,14.620 132.160 C 14.390 132.160,13.904 131.884,13.542 131.547 C 11.981 130.092,4.518 129.839,3.520 131.206 C 3.432 131.327,2.604 131.674,1.680 131.979 C 0.715 132.296,-0.000 132.722,0.000 132.980 C 0.000 133.332,0.239 133.295,1.107 132.807 C 2.180 132.205,3.818 131.696,7.251 130.899 C 9.096 130.471,12.934 131.325,13.788 132.354 C 14.020 132.633,15.153 133.301,16.305 133.838 C 17.457 134.374,18.511 134.875,18.647 134.950 C 18.783 135.025,18.574 134.428,18.183 133.623 C 17.792 132.818,17.367 132.160,17.239 132.160 C 17.111 132.160,16.815 131.980,16.583 131.759 C 16.350 131.539,15.608 131.071,14.933 130.719 C 13.175 129.803,9.932 126.555,8.204 123.979 C 5.904 120.550,6.335 119.860,9.790 121.440 C 10.752 121.880,11.613 122.240,11.702 122.240 C 12.018 122.240,13.935 123.678,15.318 124.952 C 16.859 126.372,18.225 128.911,18.250 130.400 C 18.258 130.928,18.692 132.152,19.213 133.120 L 20.160 134.880 20.146 131.360 C 20.120 124.864,19.849 123.612,17.963 121.271 C 17.059 120.150,16.320 119.055,16.320 118.839 C 16.320 118.623,16.116 118.242,15.866 117.992 C 14.920 117.045,13.400 111.924,13.210 109.040 C 12.995 105.778,13.122 105.674,15.226 107.399 L 16.640 108.557 16.640 105.234 L 16.640 101.911 15.120 101.204 C 13.058 100.245,8.766 98.560,8.384 98.560 C 8.214 98.560,7.999 98.272,7.907 97.920 C 7.732 97.249,6.899 97.051,6.560 97.600 M46.560 97.588 C 46.912 97.746,47.848 97.886,48.640 97.900 C 50.484 97.932,53.962 98.494,54.661 98.873 C 54.957 99.034,55.982 99.410,56.938 99.708 C 59.789 100.597,63.580 102.952,65.941 105.301 C 77.597 116.895,73.474 138.683,58.320 145.584 C 56.318 146.496,56.290 146.596,57.840 147.329 C 61.389 149.006,66.978 153.959,68.532 156.805 C 72.008 163.168,72.804 166.015,72.779 172.000 C 72.743 180.800,68.468 189.236,61.708 193.849 C 59.403 195.422,58.355 196.041,57.280 196.465 C 56.664 196.708,55.977 197.047,55.754 197.218 C 55.530 197.389,53.730 197.942,51.754 198.447 L 48.160 199.365 50.328 199.214 C 51.520 199.131,52.960 198.854,53.528 198.599 C 54.096 198.344,55.136 197.959,55.840 197.744 C 57.236 197.318,59.432 196.138,60.990 194.978 C 61.535 194.572,62.094 194.240,62.234 194.240 C 62.373 194.240,62.803 193.916,63.189 193.520 C 63.575 193.124,64.167 192.572,64.505 192.294 C 66.045 191.025,68.664 187.746,69.597 185.920 C 69.912 185.304,70.270 184.728,70.394 184.640 C 70.518 184.552,70.882 183.760,71.204 182.880 C 71.527 182.000,71.897 181.136,72.028 180.960 C 73.805 178.565,73.590 166.754,71.681 161.920 C 71.299 160.952,70.909 159.908,70.816 159.600 C 70.722 159.292,70.518 159.040,70.363 159.040 C 70.207 159.040,70.080 158.846,70.080 158.608 C 70.080 158.370,69.648 157.580,69.120 156.851 C 68.592 156.122,68.160 155.384,68.160 155.210 C 68.160 155.037,67.800 154.659,67.360 154.371 C 66.920 154.082,66.560 153.717,66.560 153.559 C 66.560 153.213,64.255 150.721,63.935 150.721 C 63.811 150.720,63.370 150.396,62.956 150.000 C 62.092 149.174,61.465 148.739,59.705 147.747 C 57.944 146.755,57.986 146.527,60.158 145.333 C 61.215 144.752,62.080 144.152,62.080 144.000 C 62.080 143.848,62.345 143.639,62.668 143.536 C 63.293 143.338,68.160 138.614,68.160 138.206 C 68.160 138.074,68.386 137.740,68.663 137.463 C 69.382 136.744,71.680 132.184,71.680 131.476 C 71.680 131.148,71.808 130.880,71.965 130.880 C 73.377 130.880,73.432 115.117,72.025 113.920 C 71.921 113.832,71.641 113.184,71.403 112.480 C 70.904 111.009,69.178 108.122,68.571 107.744 C 68.345 107.603,68.157 107.315,68.153 107.104 C 68.145 106.620,64.538 103.040,64.058 103.040 C 63.863 103.040,63.548 102.752,63.360 102.400 C 63.172 102.048,62.835 101.760,62.611 101.760 C 62.387 101.760,61.734 101.413,61.158 100.988 C 60.583 100.564,59.475 100.028,58.696 99.798 C 57.917 99.568,57.280 99.280,57.280 99.157 C 57.280 99.035,56.164 98.692,54.800 98.395 C 53.436 98.098,52.104 97.748,51.840 97.616 C 51.576 97.485,50.136 97.360,48.640 97.339 C 46.801 97.314,46.127 97.394,46.560 97.588 M26.773 101.973 C 26.656 102.091,26.568 106.375,26.579 111.493 C 26.594 118.822,26.679 120.672,26.979 120.199 C 29.845 115.680,31.581 115.054,31.058 118.728 C 30.070 125.671,28.107 130.226,24.601 133.711 C 23.390 134.914,22.400 136.047,22.400 136.228 C 22.400 136.409,21.972 138.044,21.449 139.861 C 20.926 141.678,20.563 143.229,20.642 143.308 C 20.790 143.457,20.813 143.400,21.465 141.280 C 22.123 139.140,25.590 134.720,26.612 134.720 C 26.734 134.720,27.040 134.515,27.291 134.263 C 27.840 133.714,32.084 131.520,32.597 131.520 C 35.103 131.520,28.867 139.424,24.443 141.856 C 21.315 143.575,20.544 145.029,20.003 150.229 C 19.782 152.347,19.646 154.130,19.699 154.191 C 19.819 154.329,20.910 151.912,21.410 150.400 C 23.207 144.970,25.408 144.219,39.652 144.173 C 50.327 144.138,50.416 144.132,52.800 143.312 C 73.245 136.282,74.143 109.791,54.161 103.149 C 50.730 102.009,27.725 101.021,26.773 101.973 M38.758 102.712 C 49.624 102.695,52.963 102.951,54.956 103.953 C 55.266 104.109,56.168 104.550,56.960 104.932 C 60.623 106.700,63.694 109.310,64.805 111.600 C 65.083 112.172,65.437 112.640,65.592 112.640 C 65.748 112.640,66.115 113.468,66.409 114.480 C 66.703 115.492,67.109 116.423,67.312 116.548 C 67.826 116.867,67.829 127.930,67.315 128.252 C 67.114 128.377,66.718 129.264,66.434 130.222 C 66.150 131.180,65.810 132.044,65.679 132.142 C 65.548 132.240,65.152 132.885,64.800 133.577 C 63.383 136.359,58.125 140.842,55.200 141.761 C 54.496 141.982,53.776 142.268,53.600 142.396 C 52.327 143.319,49.772 143.520,39.148 143.538 C 32.492 143.548,28.049 143.679,27.788 143.871 C 27.553 144.044,26.784 144.379,26.080 144.615 C 24.456 145.159,22.275 147.337,21.353 149.335 L 20.640 150.880 20.540 149.485 C 20.485 148.719,20.648 147.639,20.903 147.085 C 21.158 146.532,21.544 145.576,21.760 144.960 C 22.132 143.901,24.891 141.760,25.882 141.760 C 26.423 141.760,30.709 137.589,31.257 136.529 C 31.527 136.007,31.879 135.423,32.039 135.230 C 34.502 132.261,34.168 129.987,31.466 131.330 C 30.968 131.578,30.128 131.974,29.600 132.210 C 29.072 132.447,28.450 132.820,28.217 133.040 C 27.985 133.260,27.625 133.442,27.417 133.443 C 27.210 133.445,26.375 134.057,25.562 134.803 C 22.560 137.558,22.783 137.413,22.961 136.482 C 23.048 136.030,23.413 135.503,23.774 135.310 C 24.135 135.117,24.801 134.509,25.255 133.960 C 25.709 133.411,26.368 132.665,26.720 132.303 C 27.072 131.941,27.647 131.076,27.997 130.382 C 28.348 129.688,28.791 128.904,28.982 128.640 C 29.173 128.376,29.513 127.512,29.738 126.720 C 29.962 125.928,30.261 125.136,30.402 124.960 C 31.447 123.654,31.915 115.760,30.958 115.579 C 30.377 115.469,27.520 118.058,27.520 118.695 C 27.520 118.885,27.376 119.040,27.200 119.040 C 26.995 119.040,26.880 115.987,26.880 110.521 C 26.880 103.346,26.949 102.059,27.318 102.365 C 27.628 102.622,30.991 102.724,38.758 102.712 M14.272 109.840 C 14.389 110.764,14.589 111.664,14.716 111.840 C 14.844 112.016,15.114 112.844,15.318 113.679 C 15.735 115.387,17.250 118.471,18.267 119.680 C 18.814 120.331,18.897 120.360,18.711 119.840 C 17.569 116.637,17.436 115.840,18.045 115.840 C 18.312 115.840,18.852 116.859,19.395 118.386 C 20.347 121.066,20.786 121.198,20.795 118.807 C 20.800 117.442,19.583 113.727,18.816 112.766 C 17.685 111.349,14.585 108.160,14.338 108.160 C 14.184 108.160,14.154 108.916,14.272 109.840 M16.640 110.854 C 16.904 111.192,17.513 112.056,17.994 112.774 C 18.475 113.492,18.994 114.231,19.147 114.416 C 19.544 114.895,20.271 118.076,20.036 118.311 C 19.928 118.418,19.840 118.253,19.840 117.943 C 19.840 116.800,18.789 115.520,17.851 115.520 C 17.361 115.520,16.960 115.694,16.960 115.908 C 16.960 116.689,15.711 113.818,15.381 112.277 C 14.731 109.250,15.079 108.857,16.640 110.854 M28.800 119.579 C 28.360 120.225,27.817 120.937,27.594 121.160 C 26.500 122.255,22.586 131.200,23.201 131.200 C 23.258 131.200,24.035 129.868,24.927 128.240 C 26.764 124.887,27.275 124.160,27.795 124.160 C 28.223 124.160,28.290 125.322,27.877 125.577 C 27.498 125.811,23.617 132.844,23.779 133.005 C 24.045 133.272,26.315 130.001,27.247 128.007 C 27.784 126.859,28.338 125.693,28.479 125.417 C 28.620 125.140,28.970 123.700,29.258 122.217 C 29.546 120.733,29.835 119.268,29.901 118.960 C 30.090 118.070,29.665 118.309,28.800 119.579 M29.120 121.280 C 29.120 121.632,28.994 121.920,28.840 121.920 C 28.686 121.920,28.474 122.352,28.368 122.880 C 28.231 123.567,27.992 123.840,27.528 123.840 C 26.674 123.840,26.710 123.517,27.737 121.949 C 28.678 120.511,29.120 120.298,29.120 121.280 M4.560 132.550 C 3.812 132.737,3.200 133.014,3.200 133.165 C 3.200 133.316,2.948 133.442,2.640 133.445 C 2.165 133.449,2.152 133.496,2.557 133.752 C 2.858 133.941,3.148 133.940,3.341 133.747 C 3.510 133.578,3.871 133.439,4.144 133.438 C 4.417 133.437,5.057 133.218,5.568 132.952 C 6.513 132.459,7.237 132.603,6.403 133.118 C 6.017 133.357,6.039 133.504,6.542 134.060 C 7.049 134.620,7.063 134.720,6.636 134.720 C 6.360 134.720,6.085 134.588,6.027 134.427 C 5.869 133.993,3.520 133.615,3.520 134.023 C 3.520 135.193,11.932 135.725,13.033 134.625 C 13.545 134.112,13.386 134.080,10.309 134.080 C 7.635 134.080,7.040 133.994,7.040 133.606 C 7.040 132.930,8.380 132.683,10.811 132.910 C 12.475 133.066,12.832 133.024,12.522 132.713 C 12.014 132.204,6.398 132.089,4.560 132.550 M0.000 134.264 C 0.000 134.536,0.144 134.669,0.320 134.560 C 0.496 134.451,0.640 134.492,0.640 134.650 C 0.640 134.808,1.252 135.135,2.000 135.375 C 2.748 135.616,3.432 135.903,3.520 136.013 C 3.772 136.328,7.325 136.960,8.843 136.960 C 9.902 136.960,10.180 137.065,10.045 137.415 C 9.861 137.896,10.353 139.039,11.091 139.840 C 11.334 140.104,12.118 141.076,12.834 142.000 C 13.549 142.924,14.259 143.680,14.411 143.680 C 14.563 143.680,15.075 144.040,15.550 144.480 C 16.025 144.920,16.600 145.280,16.829 145.280 C 17.577 145.280,18.240 146.662,18.240 148.221 C 18.240 149.440,18.145 149.704,17.760 149.556 C 17.496 149.454,17.280 149.242,17.280 149.083 C 17.280 148.924,16.848 148.198,16.320 147.469 C 15.792 146.740,15.360 145.993,15.360 145.808 C 15.360 145.267,12.146 142.406,10.736 141.691 C 10.023 141.329,9.368 140.938,9.280 140.821 C 9.032 140.492,5.779 139.520,4.923 139.520 C 4.503 139.520,4.160 139.376,4.160 139.200 C 4.160 139.024,3.368 138.880,2.400 138.880 C -0.610 138.880,0.063 140.463,5.140 145.320 L 7.690 147.760 5.896 147.909 C 4.192 148.050,3.537 148.441,3.525 149.323 C 3.503 150.924,10.322 155.840,12.566 155.840 C 13.935 155.840,14.720 156.106,14.720 156.569 C 14.720 156.756,14.960 157.175,15.254 157.500 C 15.770 158.070,15.693 158.088,13.003 158.005 C 11.215 157.951,10.135 158.048,9.988 158.277 C 9.863 158.473,9.454 158.729,9.080 158.846 C 8.428 159.049,6.080 161.119,6.080 161.490 C 6.080 161.588,5.504 162.392,4.800 163.276 C 2.432 166.251,3.791 167.778,7.447 166.250 L 8.572 165.780 8.779 166.880 C 8.892 167.484,9.168 168.164,9.391 168.390 C 9.613 168.615,10.071 169.268,10.407 169.840 C 10.743 170.412,11.203 170.880,11.429 170.880 C 11.655 170.880,11.840 171.024,11.840 171.200 C 11.840 171.376,11.431 171.520,10.931 171.520 C 9.759 171.520,7.257 172.273,6.547 172.840 C 2.829 175.805,0.860 179.517,2.800 179.905 C 3.780 180.101,7.802 179.520,8.848 179.031 C 9.403 178.772,10.067 178.560,10.323 178.560 C 11.125 178.560,14.531 176.618,15.147 175.810 C 16.249 174.364,16.320 174.908,16.320 184.748 L 16.320 194.456 14.580 195.308 C 13.623 195.777,12.647 196.160,12.411 196.160 C 12.175 196.160,11.698 196.358,11.351 196.600 C 11.004 196.842,9.875 197.306,8.843 197.630 C 7.165 198.157,6.358 198.785,6.795 199.221 C 6.879 199.306,7.581 199.013,8.354 198.571 C 9.127 198.129,10.480 197.531,11.360 197.241 C 12.240 196.952,13.104 196.611,13.280 196.483 C 13.456 196.355,14.284 195.994,15.120 195.681 L 16.640 195.113 16.640 184.597 C 16.640 178.812,16.532 174.082,16.400 174.083 C 16.268 174.085,15.656 174.607,15.040 175.243 C 12.989 177.359,7.787 179.200,3.858 179.200 C 2.258 179.200,2.129 178.982,2.933 177.631 C 5.523 173.279,9.865 171.134,13.746 172.286 C 14.698 172.569,15.623 172.800,15.802 172.800 C 16.460 172.800,15.500 172.262,14.164 171.882 C 12.106 171.297,8.608 167.138,9.099 165.860 C 9.897 163.781,15.203 166.960,16.024 170.009 C 16.298 171.027,18.373 174.719,18.671 174.720 C 18.698 174.720,18.626 173.316,18.512 171.600 C 18.398 169.884,18.290 166.953,18.272 165.088 C 18.231 160.729,17.892 159.678,16.529 159.684 C 14.807 159.692,14.208 160.002,13.814 161.091 C 13.062 163.170,8.892 165.711,5.767 165.994 C 3.530 166.197,3.405 165.987,4.710 164.219 C 8.051 159.691,9.461 158.652,12.157 158.730 C 17.221 158.878,17.326 158.810,15.361 156.678 C 14.231 155.452,13.880 155.269,12.357 155.112 C 10.035 154.872,8.898 154.224,6.332 151.678 C 3.818 149.184,3.741 148.948,5.360 148.692 C 9.426 148.049,12.946 149.723,14.334 152.960 C 14.674 153.752,15.492 155.045,16.152 155.833 C 16.811 156.621,17.476 157.593,17.628 157.993 C 18.177 159.437,18.397 158.667,18.220 155.920 C 18.023 152.862,17.871 152.351,16.706 150.800 C 16.014 149.880,15.747 149.760,14.391 149.760 C 11.862 149.760,8.143 147.692,4.895 144.480 C 3.262 142.865,1.280 140.368,1.280 139.926 C 1.280 139.251,4.921 139.593,6.880 140.452 C 11.365 142.420,13.318 143.869,14.999 146.482 C 16.340 148.563,18.366 151.330,18.560 151.345 C 19.376 151.407,18.428 145.383,17.580 145.114 C 16.033 144.623,10.556 139.004,10.568 137.920 C 10.586 136.358,14.940 137.503,16.797 139.559 C 18.108 141.010,18.880 142.593,18.880 143.830 C 18.880 146.206,19.470 144.133,19.670 141.057 L 19.902 137.474 18.831 136.585 C 18.242 136.096,17.256 135.530,16.640 135.327 C 16.024 135.123,15.359 134.830,15.162 134.674 C 14.940 134.499,14.639 134.591,14.367 134.920 C 12.524 137.141,5.522 136.872,1.142 134.412 C 0.177 133.870,0.000 133.847,0.000 134.264 M10.640 134.951 C 10.068 135.022,9.132 135.022,8.560 134.951 C 7.988 134.881,8.456 134.822,9.600 134.822 C 10.744 134.822,11.212 134.881,10.640 134.951 M16.736 135.877 C 18.918 136.977,20.749 140.160,19.200 140.160 C 19.024 140.160,18.871 140.484,18.860 140.880 C 18.840 141.566,18.827 141.570,18.579 140.957 C 18.196 140.014,16.564 138.240,16.079 138.240 C 15.848 138.240,15.577 138.023,15.475 137.758 C 15.373 137.493,14.713 137.184,14.008 137.071 C 12.909 136.896,12.812 136.819,13.323 136.534 C 13.652 136.351,14.110 136.012,14.343 135.781 C 14.900 135.226,15.494 135.250,16.736 135.877 M3.710 141.518 C 6.229 144.483,9.808 147.371,11.595 147.880 C 12.346 148.093,13.097 148.388,13.264 148.534 C 13.431 148.680,13.863 148.797,14.224 148.793 C 15.158 148.783,12.071 146.384,9.312 144.977 C 7.725 144.166,7.105 143.438,7.783 143.178 C 8.258 142.995,10.524 144.125,12.129 145.345 C 13.319 146.249,13.332 145.738,12.144 144.733 C 10.641 143.462,8.377 142.215,6.711 141.740 C 5.924 141.516,5.143 141.212,4.976 141.066 C 4.174 140.364,3.066 140.760,3.710 141.518 M6.983 142.237 C 7.041 142.294,7.041 142.733,6.984 143.211 L 6.880 144.080 6.000 143.197 C 4.875 142.067,4.875 141.629,5.999 141.911 C 6.483 142.033,6.926 142.179,6.983 142.237 M10.800 146.413 C 11.372 146.675,11.840 147.015,11.840 147.170 C 11.840 147.580,8.683 145.840,8.479 145.317 C 8.352 144.989,8.497 145.013,9.033 145.406 C 9.433 145.698,10.228 146.152,10.800 146.413 M26.720 146.123 C 25.199 146.916,23.040 149.109,23.040 149.860 C 23.040 150.052,23.580 149.703,24.240 149.084 C 24.900 148.464,26.196 147.397,27.120 146.713 C 28.044 146.028,28.800 145.426,28.800 145.374 C 28.800 145.136,28.197 145.353,26.720 146.123 M29.360 145.492 C 30.090 145.786,29.785 146.129,26.720 148.463 C 25.048 149.737,23.680 150.909,23.680 151.069 C 23.680 151.536,24.273 151.405,24.900 150.800 C 26.148 149.595,28.770 147.520,29.043 147.520 C 29.202 147.520,29.525 147.160,29.760 146.720 C 30.059 146.161,30.456 145.920,31.080 145.920 L 31.971 145.920 31.194 146.697 C 30.767 147.124,29.981 147.731,29.449 148.046 C 28.916 148.360,28.480 148.707,28.480 148.815 C 28.480 149.288,24.118 151.791,23.721 151.545 C 23.365 151.325,22.181 152.208,22.459 152.486 C 23.081 153.108,27.248 150.701,31.097 147.498 C 32.140 146.630,33.138 145.920,33.315 145.920 C 33.493 145.920,33.549 145.776,33.440 145.600 C 33.331 145.424,32.279 145.291,31.101 145.305 C 29.924 145.319,29.140 145.403,29.360 145.492 M29.920 149.791 C 27.319 151.895,25.899 152.723,23.360 153.616 C 20.507 154.619,19.973 155.385,19.734 158.814 C 19.555 161.364,19.467 161.386,22.720 158.068 C 26.116 154.603,30.240 152.960,35.542 152.960 C 38.618 152.960,38.774 153.472,36.373 155.671 C 33.012 158.750,28.296 160.546,24.325 160.258 C 22.397 160.119,22.280 160.155,21.054 161.256 L 19.782 162.397 19.888 168.879 C 19.947 172.443,20.088 175.360,20.203 175.360 C 21.537 175.360,24.471 170.519,23.640 169.688 C 22.639 168.687,23.938 160.960,25.107 160.960 C 27.298 160.960,27.843 168.244,25.820 170.480 C 25.462 170.876,25.258 171.200,25.368 171.200 C 25.863 171.200,27.141 169.655,27.485 168.640 C 28.127 166.741,34.679 160.600,35.513 161.116 C 35.910 161.361,35.951 163.414,35.564 163.653 C 35.412 163.747,35.104 164.480,34.879 165.283 C 34.129 167.962,30.697 170.880,28.295 170.880 C 27.894 170.880,27.375 171.063,27.143 171.287 C 26.910 171.510,25.928 172.255,24.960 172.941 C 20.565 176.058,20.023 176.969,20.337 180.731 L 20.565 183.473 21.149 182.377 C 21.470 181.773,21.739 181.032,21.747 180.729 C 21.777 179.466,23.353 176.704,24.913 175.176 C 26.971 173.161,32.531 170.185,32.955 170.871 C 33.578 171.879,31.043 176.645,28.564 179.126 L 26.560 181.132 26.560 188.166 L 26.560 195.200 36.354 195.200 C 52.990 195.200,58.684 193.140,64.661 184.960 C 67.729 180.762,69.544 172.227,68.369 167.520 C 67.664 164.695,67.375 163.829,66.531 162.022 C 63.776 156.119,58.039 151.056,52.599 149.728 C 51.742 149.519,50.838 149.188,50.591 148.994 C 50.292 148.758,47.045 148.616,40.831 148.569 L 31.520 148.498 29.920 149.791 M49.944 149.636 C 51.603 149.921,53.032 150.256,53.120 150.383 C 53.208 150.509,54.036 150.881,54.960 151.210 C 55.884 151.538,56.640 151.899,56.640 152.012 C 56.640 152.125,57.011 152.386,57.464 152.593 C 58.893 153.244,63.038 156.824,63.041 157.409 C 63.041 157.514,63.473 158.104,64.000 158.720 C 64.527 159.336,64.959 160.002,64.959 160.201 C 64.960 160.399,65.157 160.725,65.397 160.925 C 65.638 161.124,66.092 162.114,66.407 163.124 C 66.721 164.134,67.099 165.039,67.245 165.136 C 68.224 165.783,68.253 177.534,67.278 178.213 C 67.130 178.316,66.820 179.048,66.589 179.840 C 65.811 182.509,62.728 187.067,60.581 188.723 C 59.956 189.205,59.080 189.924,58.635 190.320 C 58.191 190.716,57.690 191.040,57.523 191.040 C 57.356 191.040,56.825 191.320,56.344 191.663 C 55.391 192.342,52.957 193.268,52.107 193.275 C 51.813 193.278,51.525 193.413,51.467 193.576 C 51.256 194.161,44.982 194.560,36.013 194.560 L 26.880 194.560 26.880 187.840 C 26.880 184.144,26.993 181.120,27.130 181.120 C 27.414 181.120,30.720 178.027,30.720 177.761 C 30.720 177.665,31.080 177.017,31.520 176.320 C 31.960 175.623,32.547 174.438,32.824 173.686 C 33.101 172.935,33.470 172.057,33.642 171.735 C 34.033 171.008,33.478 170.240,32.562 170.240 C 32.034 170.240,32.146 170.023,33.210 168.991 C 33.918 168.304,34.603 167.404,34.732 166.991 C 34.861 166.578,35.111 166.147,35.287 166.034 C 35.680 165.781,36.484 161.664,36.256 161.069 C 35.828 159.953,34.456 160.719,30.043 164.539 L 27.926 166.372 27.731 164.730 C 27.624 163.827,27.401 163.004,27.234 162.901 C 27.067 162.798,26.833 162.325,26.714 161.851 C 26.483 160.930,26.344 161.013,29.040 160.459 C 32.461 159.756,38.888 155.106,38.659 153.499 C 38.524 152.548,30.677 152.448,28.831 153.374 C 28.232 153.674,27.576 153.920,27.374 153.920 C 26.770 153.920,23.249 156.399,22.560 157.310 C 20.758 159.693,20.150 159.910,20.182 158.160 C 20.204 157.017,20.695 155.326,20.809 156.000 C 20.839 156.176,20.962 155.969,21.082 155.540 C 21.263 154.892,21.636 154.685,23.290 154.318 C 24.384 154.075,25.280 153.742,25.280 153.578 C 25.280 153.414,25.436 153.280,25.626 153.280 C 26.015 153.280,29.426 151.128,29.920 150.571 C 31.158 149.176,31.522 149.120,39.375 149.120 C 44.866 149.120,47.751 149.261,49.944 149.636 M6.080 149.900 C 6.080 150.234,8.592 152.417,9.760 153.098 C 10.966 153.801,12.800 154.415,12.800 154.116 C 12.800 153.899,9.628 151.680,9.318 151.680 C 9.164 151.680,8.861 151.466,8.643 151.204 C 7.506 149.834,10.440 150.593,12.080 152.093 C 12.476 152.455,12.800 152.602,12.800 152.419 C 12.800 151.940,10.532 150.439,9.254 150.073 C 8.150 149.756,6.080 149.643,6.080 149.900 M15.680 150.560 C 15.680 150.824,15.826 151.040,16.004 151.040 C 16.652 151.040,17.965 154.425,17.860 155.824 L 17.760 157.161 16.550 155.536 C 15.885 154.642,15.197 153.534,15.022 153.074 C 14.847 152.613,14.420 151.837,14.072 151.349 C 13.227 150.162,13.259 150.080,14.560 150.080 C 15.342 150.080,15.680 150.225,15.680 150.560 M30.720 154.679 C 28.877 155.082,25.458 156.573,25.120 157.121 C 24.834 157.583,25.068 157.527,26.951 156.680 C 27.880 156.262,29.371 155.750,30.264 155.541 C 31.158 155.333,32.454 154.962,33.144 154.716 C 34.816 154.120,33.373 154.098,30.720 154.679 M33.280 155.849 C 32.840 155.993,30.824 156.643,28.800 157.294 C 25.123 158.477,23.087 159.546,25.124 159.223 C 25.650 159.139,26.782 158.993,27.639 158.896 C 29.207 158.720,32.432 157.314,33.920 156.157 C 34.764 155.500,34.596 155.420,33.280 155.849 M9.393 160.631 C 6.747 162.577,5.052 165.540,7.152 164.549 C 7.530 164.371,8.344 164.039,8.960 163.812 C 10.173 163.365,12.800 161.383,12.800 160.915 C 12.800 160.641,11.030 161.482,9.849 162.316 C 9.430 162.612,9.208 162.616,8.925 162.333 C 8.456 161.864,8.974 161.304,10.737 160.374 C 11.660 159.887,11.823 159.704,11.343 159.694 C 10.982 159.686,10.104 160.108,9.393 160.631 M17.280 160.773 C 17.280 161.023,17.405 161.275,17.558 161.333 C 17.710 161.392,17.905 163.911,17.990 166.932 C 18.108 171.159,18.054 172.389,17.755 172.274 C 17.248 172.079,16.640 170.727,16.640 169.794 C 16.640 169.389,16.352 168.726,16.000 168.320 C 15.648 167.914,15.360 167.480,15.360 167.355 C 15.360 166.891,12.917 165.454,11.679 165.190 L 10.400 164.917 11.430 164.375 C 12.515 163.805,14.080 162.285,14.080 161.801 C 14.080 161.644,14.390 161.246,14.769 160.918 C 15.591 160.204,17.280 160.107,17.280 160.773 M23.850 161.714 C 22.801 163.350,22.512 167.458,23.226 170.587 C 23.380 171.262,23.158 171.674,22.027 172.818 L 20.640 174.222 20.435 172.311 C 19.535 163.933,20.530 160.310,23.573 160.892 C 24.224 161.016,24.249 161.092,23.850 161.714 M8.800 162.863 C 9.400 163.106,9.385 163.148,8.559 163.533 C 7.565 163.996,7.251 163.858,7.547 163.086 C 7.769 162.505,7.869 162.488,8.800 162.863 M33.593 163.688 C 33.338 163.995,33.113 164.407,33.094 164.603 C 32.937 166.146,32.556 166.549,31.691 166.086 C 30.923 165.675,29.775 166.438,29.050 167.840 C 28.840 168.248,29.117 168.103,29.815 167.440 C 31.647 165.700,32.122 166.704,30.337 168.545 C 29.775 169.125,29.484 169.600,29.690 169.600 C 30.374 169.600,33.526 166.154,33.912 164.984 C 34.381 163.562,34.225 162.927,33.593 163.688 M31.840 165.120 C 31.380 165.628,31.357 165.760,31.726 165.760 C 32.228 165.760,32.960 165.153,32.960 164.736 C 32.960 164.283,32.435 164.463,31.840 165.120 M28.561 171.850 C 27.288 172.361,24.386 174.675,23.461 175.916 C 22.968 176.578,22.488 177.192,22.395 177.280 C 22.040 177.618,21.440 179.260,21.440 179.894 C 21.440 180.448,21.360 180.492,20.960 180.160 C 19.610 179.039,21.964 175.296,25.286 173.280 C 27.508 171.931,28.336 171.522,28.800 171.541 C 29.073 171.552,28.970 171.685,28.561 171.850 M8.969 173.676 C 7.626 174.150,4.160 177.155,4.160 177.846 C 4.160 178.750,10.504 177.014,13.039 175.416 C 15.606 173.799,13.612 173.519,10.250 175.025 C 8.164 175.959,7.573 176.012,7.869 175.239 C 8.012 174.868,9.840 173.827,11.200 173.342 C 11.530 173.224,11.481 173.171,11.040 173.171 C 10.688 173.171,9.756 173.398,8.969 173.676 M11.881 175.528 C 10.035 176.583,8.888 176.879,9.135 176.237 C 9.235 175.976,10.064 175.545,10.978 175.279 C 13.338 174.591,13.460 174.625,11.881 175.528 M8.102 176.640 C 9.156 176.640,8.589 176.862,6.914 177.106 L 5.347 177.333 6.114 176.388 C 6.822 175.514,6.902 175.488,7.169 176.041 C 7.328 176.371,7.748 176.640,8.102 176.640 " stroke="none" fill="#b8b7b9" fill-rule="evenodd"></path><path id="path2" d="M7.941 98.050 C 8.035 98.409,8.171 98.527,8.243 98.312 C 8.344 98.008,12.753 97.920,27.760 97.920 C 38.423 97.920,47.039 97.812,46.907 97.680 C 46.236 97.009,7.765 97.375,7.941 98.050 M46.164 101.990 C 46.651 102.063,47.371 102.061,47.764 101.985 C 48.158 101.909,47.760 101.849,46.880 101.852 C 46.000 101.854,45.678 101.916,46.164 101.990 M16.320 109.920 C 16.917 110.536,17.478 111.040,17.566 111.040 C 17.654 111.040,17.237 110.536,16.640 109.920 C 16.043 109.304,15.482 108.800,15.394 108.800 C 15.306 108.800,15.723 109.304,16.320 109.920 M20.158 131.265 C 20.071 133.325,20.113 134.897,20.251 134.758 C 20.390 134.619,20.461 132.934,20.410 131.013 L 20.317 127.520 20.158 131.265 M8.084 132.070 C 8.571 132.143,9.291 132.141,9.684 132.065 C 10.078 131.989,9.680 131.929,8.800 131.932 C 7.920 131.934,7.598 131.996,8.084 132.070 M8.720 133.989 C 9.204 134.063,9.996 134.063,10.480 133.989 C 10.964 133.916,10.568 133.856,9.600 133.856 C 8.632 133.856,8.236 133.916,8.720 133.989 M9.204 135.586 C 9.602 135.663,10.178 135.660,10.484 135.580 C 10.790 135.500,10.464 135.437,9.760 135.441 C 9.056 135.444,8.806 135.510,9.204 135.586 M28.305 138.960 L 27.040 140.320 28.400 139.055 C 29.665 137.879,29.907 137.600,29.665 137.600 C 29.613 137.600,29.001 138.212,28.305 138.960 M30.480 145.181 C 30.788 145.261,31.292 145.261,31.600 145.181 C 31.908 145.100,31.656 145.034,31.040 145.034 C 30.424 145.034,30.172 145.100,30.480 145.181 M18.675 148.905 L 18.630 151.200 18.908 149.320 C 19.062 148.286,19.082 147.253,18.953 147.025 C 18.825 146.797,18.700 147.643,18.675 148.905 M19.914 149.120 C 19.914 149.736,19.980 149.988,20.061 149.680 C 20.141 149.372,20.141 148.868,20.061 148.560 C 19.980 148.252,19.914 148.504,19.914 149.120 M11.840 149.860 C 11.840 149.915,12.308 150.383,12.880 150.900 L 13.920 151.840 12.980 150.800 C 12.104 149.831,11.840 149.613,11.840 149.860 M11.336 151.262 C 11.383 151.580,11.527 151.816,11.657 151.787 C 12.143 151.677,12.162 151.440,11.713 151.068 C 11.338 150.756,11.267 150.792,11.336 151.262 M19.612 152.160 C 19.614 153.040,19.676 153.362,19.750 152.876 C 19.823 152.389,19.821 151.669,19.745 151.276 C 19.669 150.882,19.609 151.280,19.612 152.160 M34.800 153.191 C 35.372 153.262,36.308 153.262,36.880 153.191 C 37.452 153.121,36.984 153.062,35.840 153.062 C 34.696 153.062,34.228 153.121,34.800 153.191 M18.348 156.160 C 18.348 157.480,18.404 158.020,18.473 157.360 C 18.542 156.700,18.542 155.620,18.473 154.960 C 18.404 154.300,18.348 154.840,18.348 156.160 M27.920 156.170 C 26.848 156.601,27.049 156.819,28.160 156.432 C 28.688 156.248,29.120 156.039,29.120 155.969 C 29.120 155.779,28.731 155.844,27.920 156.170 M19.601 157.920 C 19.604 158.624,19.670 158.874,19.746 158.476 C 19.823 158.078,19.820 157.502,19.740 157.196 C 19.660 156.890,19.597 157.216,19.601 157.920 M18.345 164.000 C 18.346 165.232,18.404 165.697,18.474 165.033 C 18.543 164.369,18.542 163.361,18.471 162.793 C 18.400 162.225,18.344 162.768,18.345 164.000 M19.647 167.040 C 19.647 169.592,19.697 170.636,19.758 169.360 C 19.818 168.084,19.818 165.996,19.758 164.720 C 19.697 163.444,19.647 164.488,19.647 167.040 M18.321 168.160 C 18.324 168.864,18.390 169.114,18.466 168.716 C 18.543 168.318,18.540 167.742,18.460 167.436 C 18.380 167.130,18.317 167.456,18.321 168.160 M25.782 170.216 C 25.252 170.801,25.252 170.827,25.786 170.749 C 26.094 170.704,26.382 170.427,26.425 170.133 C 26.524 169.456,26.462 169.464,25.782 170.216 M18.506 172.511 C 18.448 173.761,18.487 174.836,18.594 174.902 C 18.700 174.967,18.816 173.945,18.850 172.630 C 18.931 169.588,18.648 169.490,18.506 172.511 M10.800 172.066 C 11.196 172.142,11.844 172.142,12.240 172.066 C 12.636 171.990,12.312 171.927,11.520 171.927 C 10.728 171.927,10.404 171.990,10.800 172.066 M19.914 174.080 C 19.914 174.696,19.980 174.948,20.061 174.640 C 20.141 174.332,20.141 173.828,20.061 173.520 C 19.980 173.212,19.914 173.464,19.914 174.080 M47.680 194.880 C 46.604 195.224,47.766 195.224,49.120 194.880 C 49.982 194.661,49.999 194.635,49.280 194.630 C 48.840 194.626,48.120 194.739,47.680 194.880 " stroke="none" fill="#cccccd" fill-rule="evenodd"></path><path id="path3" d="M16.638 104.735 L 16.796 108.000 16.891 104.989 C 16.943 103.332,16.872 101.863,16.733 101.723 C 16.594 101.584,16.551 102.939,16.638 104.735 M26.381 111.360 C 26.381 116.376,26.425 118.428,26.479 115.920 C 26.533 113.412,26.533 109.308,26.479 106.800 C 26.425 104.292,26.381 106.344,26.381 111.360 M72.394 119.680 C 72.394 120.296,72.460 120.548,72.541 120.240 C 72.621 119.932,72.621 119.428,72.541 119.120 C 72.460 118.812,72.394 119.064,72.394 119.680 M72.394 124.800 C 72.394 125.416,72.460 125.668,72.541 125.360 C 72.621 125.052,72.621 124.548,72.541 124.240 C 72.460 123.932,72.394 124.184,72.394 124.800 M21.462 132.987 C 21.475 133.500,21.604 134.208,21.749 134.560 C 21.934 135.007,21.986 134.786,21.924 133.824 C 21.822 132.267,21.428 131.551,21.462 132.987 M8.880 136.546 C 9.276 136.622,9.924 136.622,10.320 136.546 C 10.716 136.470,10.392 136.407,9.600 136.407 C 8.808 136.407,8.484 136.470,8.880 136.546 M64.780 140.880 L 63.840 141.920 64.880 140.980 C 65.452 140.463,65.920 139.995,65.920 139.940 C 65.920 139.693,65.656 139.911,64.780 140.880 M19.287 159.040 C 19.287 159.832,19.350 160.156,19.426 159.760 C 19.502 159.364,19.502 158.716,19.426 158.320 C 19.350 157.924,19.287 158.248,19.287 159.040 M16.783 184.800 C 16.783 190.608,16.826 193.029,16.879 190.180 C 16.932 187.332,16.932 182.580,16.880 179.620 C 16.827 176.661,16.783 178.992,16.783 184.800 M5.580 175.760 L 4.640 176.800 5.680 175.860 C 6.252 175.343,6.720 174.875,6.720 174.820 C 6.720 174.573,6.456 174.791,5.580 175.760 M26.376 188.000 C 26.377 191.872,26.423 193.412,26.479 191.422 C 26.535 189.433,26.535 186.265,26.479 184.382 C 26.422 182.500,26.376 184.128,26.376 188.000 " stroke="none" fill="#d4d3d4" fill-rule="evenodd"></path><path id="path4" d="M26.199 102.000 C 25.811 102.495,25.819 102.514,26.268 102.164 C 26.643 101.872,29.611 101.745,37.628 101.680 L 48.480 101.591 37.559 101.516 C 27.486 101.446,26.604 101.483,26.199 102.000 M17.078 105.280 C 17.078 107.128,17.131 107.884,17.196 106.960 C 17.261 106.036,17.261 104.524,17.196 103.600 C 17.131 102.676,17.078 103.432,17.078 105.280 M65.760 105.600 C 66.447 106.304,67.082 106.880,67.170 106.880 C 67.258 106.880,66.767 106.304,66.080 105.600 C 65.393 104.896,64.758 104.320,64.670 104.320 C 64.582 104.320,65.073 104.896,65.760 105.600 M63.027 108.240 C 63.811 109.076,64.495 109.760,64.547 109.760 C 64.787 109.760,64.533 109.473,63.120 108.147 L 61.600 106.720 63.027 108.240 M13.207 108.480 C 13.207 109.272,13.270 109.596,13.346 109.200 C 13.422 108.804,13.422 108.156,13.346 107.760 C 13.270 107.364,13.207 107.688,13.207 108.480 M16.640 109.920 C 17.237 110.536,17.798 111.040,17.886 111.040 C 17.974 111.040,17.557 110.536,16.960 109.920 C 16.363 109.304,15.802 108.800,15.714 108.800 C 15.626 108.800,16.043 109.304,16.640 109.920 M13.462 110.747 C 13.475 111.172,13.615 111.808,13.775 112.160 C 13.977 112.606,14.006 112.412,13.870 111.520 C 13.644 110.034,13.430 109.629,13.462 110.747 M19.543 113.760 C 19.543 113.936,19.748 114.440,20.000 114.880 C 20.252 115.320,20.457 115.536,20.457 115.360 C 20.457 115.184,20.252 114.680,20.000 114.240 C 19.748 113.800,19.543 113.584,19.543 113.760 M17.747 116.181 C 17.631 116.369,17.622 116.609,17.728 116.715 C 17.834 116.820,17.920 116.711,17.920 116.472 C 17.920 116.186,18.090 116.250,18.418 116.659 C 18.896 117.255,18.901 117.251,18.566 116.560 C 18.174 115.750,18.049 115.692,17.747 116.181 M29.582 117.198 L 28.640 118.240 29.680 117.300 L 30.720 116.360 30.764 117.300 C 30.801 118.111,30.827 118.136,30.951 117.483 C 31.192 116.209,30.589 116.083,29.582 117.198 M20.887 118.720 C 20.887 119.512,20.950 119.836,21.026 119.440 C 21.102 119.044,21.102 118.396,21.026 118.000 C 20.950 117.604,20.887 117.928,20.887 118.720 M19.545 120.019 C 19.504 120.833,20.329 121.782,20.641 121.279 C 20.804 121.015,20.773 120.939,20.557 121.073 C 20.364 121.192,20.074 120.899,19.893 120.402 C 19.715 119.917,19.559 119.744,19.545 120.019 M72.416 122.240 C 72.416 123.208,72.476 123.604,72.549 123.120 C 72.623 122.636,72.623 121.844,72.549 121.360 C 72.476 120.876,72.416 121.272,72.416 122.240 M19.802 123.910 C 19.949 124.799,19.994 124.844,20.095 124.203 C 20.161 123.787,20.082 123.314,19.921 123.153 C 19.744 122.976,19.697 123.274,19.802 123.910 M20.241 126.240 C 20.244 126.944,20.310 127.194,20.386 126.796 C 20.463 126.398,20.460 125.822,20.380 125.516 C 20.300 125.210,20.237 125.536,20.241 126.240 M11.187 127.440 C 11.971 128.276,12.655 128.960,12.707 128.960 C 12.947 128.960,12.693 128.673,11.280 127.347 L 9.760 125.920 11.187 127.440 M17.920 130.861 C 17.920 131.379,18.034 131.873,18.173 131.959 C 18.312 132.045,18.369 131.621,18.298 131.018 C 18.141 129.673,17.920 129.581,17.920 130.861 M7.067 131.638 C 7.140 131.702,8.208 131.829,9.440 131.919 C 10.722 132.013,11.406 131.972,11.040 131.824 C 10.418 131.572,6.800 131.403,7.067 131.638 M5.120 132.175 C 4.769 132.412,4.899 132.442,5.600 132.285 C 6.777 132.022,7.032 131.838,6.213 131.845 C 5.876 131.848,5.384 131.996,5.120 132.175 M24.150 133.840 L 22.240 135.840 24.240 133.930 C 26.098 132.156,26.386 131.840,26.150 131.840 C 26.100 131.840,25.200 132.740,24.150 133.840 M21.194 134.080 C 21.194 134.696,21.260 134.948,21.341 134.640 C 21.421 134.332,21.421 133.828,21.341 133.520 C 21.260 133.212,21.194 133.464,21.194 134.080 M8.724 133.670 C 9.211 133.743,9.931 133.741,10.324 133.665 C 10.718 133.589,10.320 133.529,9.440 133.532 C 8.560 133.534,8.238 133.596,8.724 133.670 M5.120 134.999 C 5.384 135.157,6.104 135.376,6.720 135.485 C 7.476 135.619,7.632 135.594,7.200 135.409 C 6.210 134.986,4.552 134.658,5.120 134.999 M62.225 138.000 L 60.960 139.360 62.320 138.095 C 63.585 136.919,63.827 136.640,63.585 136.640 C 63.533 136.640,62.921 137.252,62.225 138.000 M19.927 140.480 C 19.927 141.272,19.990 141.596,20.066 141.200 C 20.142 140.804,20.142 140.156,20.066 139.760 C 19.990 139.364,19.927 139.688,19.927 140.480 M3.227 139.958 C 3.300 140.022,3.936 140.163,4.640 140.270 C 5.532 140.406,5.726 140.377,5.280 140.175 C 4.666 139.897,2.952 139.715,3.227 139.958 M5.120 143.520 C 6.254 144.664,7.254 145.600,7.342 145.600 C 7.430 145.600,6.574 144.664,5.440 143.520 C 4.306 142.376,3.306 141.440,3.218 141.440 C 3.130 141.440,3.986 142.376,5.120 143.520 M18.213 142.567 C 18.383 143.091,18.599 143.808,18.691 144.160 C 18.784 144.512,18.798 144.236,18.722 143.548 C 18.645 142.859,18.430 142.142,18.243 141.955 C 18.003 141.715,17.994 141.894,18.213 142.567 M4.960 144.320 C 6.005 145.376,6.932 146.240,7.020 146.240 C 7.108 146.240,6.325 145.376,5.280 144.320 C 4.235 143.264,3.308 142.400,3.220 142.400 C 3.132 142.400,3.915 143.264,4.960 144.320 M27.360 144.788 C 26.124 145.354,26.699 145.363,28.160 144.800 C 28.776 144.563,29.064 144.364,28.800 144.359 C 28.536 144.353,27.888 144.547,27.360 144.788 M45.840 144.549 C 46.324 144.623,47.116 144.623,47.600 144.549 C 48.084 144.476,47.688 144.416,46.720 144.416 C 45.752 144.416,45.356 144.476,45.840 144.549 M30.480 144.861 C 30.788 144.941,31.292 144.941,31.600 144.861 C 31.908 144.780,31.656 144.714,31.040 144.714 C 30.424 144.714,30.172 144.780,30.480 144.861 M25.030 146.800 C 24.264 147.548,24.251 147.585,24.945 147.045 C 26.310 145.981,26.376 145.920,26.149 145.920 C 26.029 145.920,25.525 146.316,25.030 146.800 M19.594 149.120 C 19.594 149.736,19.660 149.988,19.741 149.680 C 19.821 149.372,19.821 148.868,19.741 148.560 C 19.660 148.252,19.594 148.504,19.594 149.120 M31.249 148.400 C 31.167 148.532,33.643 148.603,36.750 148.558 C 47.184 148.407,48.219 148.293,39.779 148.226 C 35.169 148.190,31.331 148.268,31.249 148.400 M18.954 149.760 C 18.954 150.376,19.020 150.628,19.101 150.320 C 19.181 150.012,19.181 149.508,19.101 149.200 C 19.020 148.892,18.954 149.144,18.954 149.760 M23.527 149.752 C 23.212 150.100,22.830 150.308,22.677 150.214 C 22.525 150.119,22.400 150.195,22.400 150.381 C 22.400 150.941,22.884 150.767,23.680 149.920 C 24.093 149.480,24.357 149.120,24.265 149.120 C 24.174 149.120,23.842 149.405,23.527 149.752 M52.160 149.227 C 52.160 149.310,52.625 149.539,53.193 149.737 C 53.761 149.935,54.085 149.966,53.913 149.805 C 53.548 149.464,52.160 149.006,52.160 149.227 M7.440 149.661 C 7.748 149.741,8.252 149.741,8.560 149.661 C 8.868 149.580,8.616 149.514,8.000 149.514 C 7.384 149.514,7.132 149.580,7.440 149.661 M14.720 149.662 C 15.482 149.744,16.135 150.111,16.762 150.811 C 17.269 151.377,17.572 151.624,17.435 151.360 C 16.758 150.059,15.867 149.441,14.744 149.491 L 13.600 149.542 14.720 149.662 M23.360 150.880 C 22.583 151.672,22.019 152.320,22.107 152.320 C 22.195 152.320,22.903 151.672,23.680 150.880 C 24.457 150.088,25.021 149.440,24.933 149.440 C 24.845 149.440,24.137 150.088,23.360 150.880 M12.335 151.698 C 12.855 152.324,13.328 152.719,13.387 152.576 C 13.446 152.433,13.641 152.406,13.819 152.517 C 14.016 152.638,14.005 152.457,13.790 152.056 C 13.596 151.693,13.257 151.294,13.038 151.171 C 12.723 150.993,12.724 151.036,13.040 151.377 C 13.890 152.293,13.387 152.391,12.415 151.500 L 11.391 150.560 12.335 151.698 M23.090 152.661 C 22.678 152.826,22.210 152.880,22.050 152.782 C 21.891 152.683,21.760 152.755,21.760 152.941 C 21.760 153.391,22.349 153.348,23.520 152.812 C 24.598 152.318,24.251 152.196,23.090 152.661 M19.244 153.520 C 19.210 154.315,19.332 154.559,19.760 154.555 C 20.120 154.552,20.188 154.466,19.952 154.315 C 19.750 154.186,19.518 153.720,19.436 153.280 C 19.310 152.603,19.280 152.639,19.244 153.520 M61.920 155.200 C 62.787 156.080,63.568 156.800,63.656 156.800 C 63.744 156.800,63.107 156.080,62.240 155.200 C 61.373 154.320,60.592 153.600,60.504 153.600 C 60.416 153.600,61.053 154.320,61.920 155.200 M18.624 156.373 C 18.581 158.114,18.426 159.041,18.160 159.148 C 17.847 159.274,17.849 159.315,18.170 159.335 C 18.793 159.373,18.920 158.722,18.799 156.130 L 18.687 153.760 18.624 156.373 M28.240 154.250 C 27.168 154.681,27.369 154.899,28.480 154.512 C 29.008 154.328,29.440 154.119,29.440 154.049 C 29.440 153.859,29.051 153.924,28.240 154.250 M34.307 154.412 C 34.080 154.669,34.036 154.880,34.208 154.880 C 34.381 154.880,34.619 154.723,34.737 154.532 C 34.892 154.282,35.050 154.282,35.300 154.532 C 35.832 155.064,36.481 154.947,36.475 154.320 C 36.471 153.837,36.424 153.826,36.131 154.240 C 35.875 154.601,35.751 154.621,35.629 154.320 C 35.414 153.791,34.819 153.832,34.307 154.412 M12.960 155.116 C 13.664 155.187,14.600 155.559,15.040 155.942 L 15.840 156.640 15.064 155.760 C 14.434 155.045,14.043 154.890,12.984 154.934 L 11.680 154.988 12.960 155.116 M14.080 159.056 C 13.540 159.239,13.801 159.267,14.880 159.143 C 15.760 159.041,16.540 158.904,16.613 158.839 C 16.865 158.614,14.879 158.784,14.080 159.056 M27.680 159.040 C 26.794 159.265,26.782 159.287,27.520 159.317 C 27.960 159.335,28.536 159.211,28.800 159.040 C 29.345 158.688,29.063 158.688,27.680 159.040 M15.680 159.485 C 15.680 159.554,16.174 159.668,16.778 159.738 C 17.381 159.809,17.805 159.752,17.719 159.613 C 17.564 159.363,15.680 159.244,15.680 159.485 M24.560 159.586 C 24.956 159.662,25.604 159.662,26.000 159.586 C 26.396 159.510,26.072 159.447,25.280 159.447 C 24.488 159.447,24.164 159.510,24.560 159.586 M7.343 161.200 L 6.240 162.400 7.440 161.297 C 8.100 160.691,8.640 160.151,8.640 160.097 C 8.640 159.853,8.369 160.083,7.343 161.200 M18.682 165.600 C 18.683 167.712,18.735 168.534,18.797 167.427 C 18.860 166.321,18.859 164.593,18.796 163.587 C 18.733 162.582,18.682 163.488,18.682 165.600 M19.315 166.400 C 19.315 168.072,19.369 168.756,19.435 167.920 C 19.501 167.084,19.501 165.716,19.435 164.880 C 19.369 164.044,19.315 164.728,19.315 166.400 M29.585 165.840 L 28.320 167.200 29.680 165.935 C 30.428 165.239,31.040 164.627,31.040 164.575 C 31.040 164.333,30.761 164.575,29.585 165.840 M6.720 165.440 C 6.061 165.651,6.033 165.701,6.560 165.723 C 6.912 165.738,7.416 165.611,7.680 165.440 C 8.241 165.078,7.851 165.078,6.720 165.440 M9.492 165.680 C 9.411 165.812,9.943 165.939,10.673 165.963 C 11.638 165.995,11.825 165.935,11.360 165.746 C 10.529 165.407,9.676 165.377,9.492 165.680 M26.954 166.400 C 26.954 167.016,27.020 167.268,27.101 166.960 C 27.181 166.652,27.181 166.148,27.101 165.840 C 27.020 165.532,26.954 165.784,26.954 166.400 M23.441 167.200 C 23.444 167.904,23.510 168.154,23.586 167.756 C 23.663 167.358,23.660 166.782,23.580 166.476 C 23.500 166.170,23.437 166.496,23.441 167.200 M25.654 169.964 C 25.244 170.470,24.980 171.063,25.069 171.282 C 25.182 171.562,25.237 171.544,25.255 171.221 C 25.269 170.968,25.593 170.429,25.975 170.022 C 26.357 169.615,26.609 169.229,26.535 169.163 C 26.461 169.098,26.064 169.458,25.654 169.964 M68.908 171.840 C 68.908 173.160,68.964 173.700,69.033 173.040 C 69.102 172.380,69.102 171.300,69.033 170.640 C 68.964 169.980,68.908 170.520,68.908 171.840 M72.727 171.840 C 72.727 172.632,72.790 172.956,72.866 172.560 C 72.942 172.164,72.942 171.516,72.866 171.120 C 72.790 170.724,72.727 171.048,72.727 171.840 M29.680 172.023 C 28.484 172.672,28.557 172.942,29.760 172.320 C 30.288 172.047,30.720 171.755,30.720 171.672 C 30.720 171.466,30.686 171.477,29.680 172.023 M10.640 172.389 C 11.124 172.463,11.916 172.463,12.400 172.389 C 12.884 172.316,12.488 172.256,11.520 172.256 C 10.552 172.256,10.156 172.316,10.640 172.389 M18.934 173.699 C 18.897 174.650,18.765 175.007,18.511 174.849 C 18.272 174.702,18.228 174.762,18.387 175.018 C 18.822 175.722,19.250 174.867,19.116 173.562 L 18.988 172.320 18.934 173.699 M11.985 173.096 C 12.086 173.258,11.947 173.460,11.678 173.543 C 11.298 173.661,11.310 173.684,11.727 173.647 C 12.330 173.594,12.743 172.800,12.168 172.800 C 11.967 172.800,11.884 172.933,11.985 173.096 M19.578 174.320 C 19.522 175.941,20.055 176.627,20.638 175.684 C 20.748 175.505,20.625 175.447,20.355 175.551 C 19.981 175.694,19.851 175.399,19.756 174.187 L 19.635 172.640 19.578 174.320 M16.960 184.416 L 17.119 195.040 17.204 184.661 C 17.251 178.952,17.179 174.171,17.045 174.036 C 16.910 173.902,16.872 178.572,16.960 184.416 M24.780 175.440 L 23.840 176.480 24.880 175.540 C 25.849 174.664,26.067 174.400,25.820 174.400 C 25.765 174.400,25.297 174.868,24.780 175.440 M3.983 177.628 C 3.674 178.127,4.308 178.647,5.006 178.467 C 5.475 178.346,5.441 178.306,4.846 178.277 C 4.314 178.251,4.146 178.098,4.276 177.760 C 4.489 177.204,4.298 177.118,3.983 177.628 M19.950 180.000 C 19.951 181.408,20.007 181.944,20.075 181.192 C 20.142 180.439,20.141 179.287,20.073 178.632 C 20.004 177.976,19.949 178.592,19.950 180.000 M71.076 180.516 C 70.878 181.081,70.773 181.600,70.842 181.668 C 70.910 181.737,71.127 181.330,71.324 180.764 C 71.522 180.199,71.627 179.680,71.558 179.612 C 71.490 179.543,71.273 179.950,71.076 180.516 M64.470 191.120 L 62.560 193.120 64.560 191.210 C 66.418 189.436,66.706 189.120,66.470 189.120 C 66.420 189.120,65.520 190.020,64.470 191.120 M53.600 197.611 C 52.800 197.997,52.773 198.041,53.440 197.878 C 54.347 197.656,55.366 197.137,54.880 197.144 C 54.704 197.147,54.128 197.357,53.600 197.611 M46.720 199.040 C 46.293 199.316,46.293 199.350,46.720 199.350 C 46.984 199.350,47.416 199.211,47.680 199.040 C 48.107 198.764,48.107 198.730,47.680 198.730 C 47.416 198.730,46.984 198.869,46.720 199.040 " stroke="none" fill="#dcdbdc" fill-rule="evenodd"></path></g></svg>